<?xml version="1.0" encoding="UTF-8" standalone="no"?>
<svg
   xmlns:dc="http://purl.org/dc/elements/1.1/"
   xmlns:cc="http://creativecommons.org/ns#"
   xmlns:rdf="http://www.w3.org/1999/02/22-rdf-syntax-ns#"
   xmlns:svg="http://www.w3.org/2000/svg"
   xmlns="http://www.w3.org/2000/svg"
   xmlns:sodipodi="http://sodipodi.sourceforge.net/DTD/sodipodi-0.dtd"
   xmlns:inkscape="http://www.inkscape.org/namespaces/inkscape"
   inkscape:version="1.0beta1 (32d4812, 2019-09-19)"
   height="75"
   width="295"
   sodipodi:docname="logo-colored.svg"
   id="svg66"
   xml:space="preserve"
   enable-background="new 0 0 100 100"
   viewBox="0 0 295 75"
   y="0px"
   x="0px"
   version="1.1">
  <metadata
     id="metadata72">
    <rdf:RDF>
      <cc:Work
         rdf:about="">
        <dc:format>image/svg+xml</dc:format>
        <dc:type
           rdf:resource="http://purl.org/dc/dcmitype/StillImage" />
        <dc:title></dc:title>
      </cc:Work>
    </rdf:RDF>
  </metadata>
  <defs
     id="defs70" />
  <sodipodi:namedview
     inkscape:current-layer="text899"
     inkscape:window-maximized="1"
     inkscape:window-y="23"
     inkscape:window-x="0"
     inkscape:cy="37.49999"
     inkscape:cx="151.79696"
     inkscape:zoom="2.932156"
     showgrid="false"
     id="namedview68"
     inkscape:window-height="1005"
     inkscape:window-width="1680"
     inkscape:pageshadow="2"
     inkscape:pageopacity="0"
     guidetolerance="10"
     gridtolerance="10"
     objecttolerance="10"
     borderopacity="1"
     inkscape:document-rotation="0"
     bordercolor="#666666"
     pagecolor="#ffffff" />
  <path
     style="fill:#3399cc;fill-opacity:1;stroke-width:1.11967"
     inkscape:connector-curvature="0"
     id="path60"
     d="m 2.6672595,75 h 9.5576795 v -2.820063 l -1.667036,-1.240828 -1.1113591,-5.640126 1.3336291,-1.015224 4.778841,7.896178 V 75 h 9.557678 v -2.820063 l -2.222715,-2.030446 -2.222716,-3.948089 v -6.204138 c 5.890197,3.948088 13.22516,5.527323 20.671261,3.835285 l 13.780841,-2.594457 1.333629,6.204139 -1.222494,4.737706 V 75 h 6.890421 4.000888 5.334519 v -2.820063 l -2.222716,-1.80484 -1.222494,-14.889934 1.889309,-7.444966 4.778841,-2.143248 2.11158,-4.624903 h 2.000443 c 1.333631,0 2.556125,0.564012 3.334076,1.579235 l 1.000222,1.128025 c 1.111358,1.240828 2.667259,1.917643 4.334296,1.917643 h 6.668149 c 0.444543,0 0.666815,-0.45121 0.444543,-0.902421 l -1.33363,-1.80484 c 0.111136,-0.112802 0.333408,-0.112802 0.444544,-0.225604 0.444543,-0.225606 0.889086,-0.564013 1.33363,-0.902421 0.444543,-0.338407 0.777951,-0.676815 1.222493,-1.015223 0.333409,-0.338407 0.666816,-0.676815 0.889087,-1.128025 0.222272,-0.338407 0.55568,-0.789618 0.666815,-1.128025 0.222271,-0.338408 0.333407,-0.676815 0.444543,-1.015222 0.111136,-0.338408 0.222272,-0.564013 0.222272,-0.789618 0,-0.112803 0,-0.225606 0.111139,-0.338407 0,-0.112803 0,-0.112803 0,-0.225606 0,-0.112803 0,-0.225605 0,-0.225605 0,-0.225605 -0.111139,-0.45121 -0.333411,-0.564013 -0.222272,-0.112803 -0.555678,0 -0.666815,0.338408 v 0 c 0,0 0,0 0,0.112803 0,0 0,0.112802 -0.111136,0.225604 0,0.112803 -0.111135,0.112803 -0.111135,0.225606 -0.111137,0.225604 -0.222272,0.338407 -0.333408,0.564012 -0.111135,0.225605 -0.333408,0.45121 -0.555679,0.676816 -0.222272,0.225604 -0.444543,0.45121 -0.777951,0.789617 -0.333406,0.225605 -0.555679,0.45121 -0.889086,0.676815 -0.333408,0.225605 -0.666815,0.45121 -1.111358,0.564013 -0.333408,0.112802 -0.777951,0.338408 -1.222494,0.451209 -0.444543,0.112803 -0.777951,0.225606 -1.222494,0.225606 l -3.44521,-4.963312 V 19.388357 c 0,-2.256051 1.33363,-4.286497 3.334075,-5.076114 l 4.778839,-2.030445 c 0.666816,1.015222 0.555679,1.917643 1.000223,1.917643 0.444543,0 0.666814,-1.579235 0.333406,-2.481656 l 1.222495,-0.45121 1.000225,-1.9176428 C 100.35563,7.6568943 100.13336,5.5136463 98.799735,4.0472136 L 96.243612,1.114348 c -1.333629,-1.46643276 -3.556345,-1.46643276 -5.001111,-0.1128025 -1.111358,1.0152227 -1.33363,2.594458 -0.889087,3.9480883 l -9.113136,8.7985972 c -0.889087,-0.338408 -2.000444,-0.225606 -2.778395,0.564012 -0.777952,0.789617 -1.000222,1.804841 -0.666815,2.820063 l -1.889309,1.917643 -0.666814,-0.676815 c -0.333409,-0.338408 -0.889087,-0.338408 -1.222494,0 -0.333408,0.338407 -0.333408,0.90242 0,1.240828 l 0.22227,0.225604 h -6.223605 c -0.444543,0 -0.777951,0.112803 -1.111358,0.338409 l -5.556789,2.932865 h -26.56146 v 0 H 21.115803 C 9.4465439,23.11084 0,32.699054 0,44.543319 V 65.411784 L 2.6672595,72.29274 Z M 76.239167,41.49765 Z" />
  <g
     style="font-style:normal;font-weight:normal;font-size:59.3572px;line-height:1.25;font-family:sans-serif;fill:#ffffff;fill-opacity:1;stroke:none;stroke-width:1.85491"
     id="text899"
     transform="scale(1.0015182,0.99848409)"
     aria-label="{hippo}">
    <path
       id="path1593"
       style="font-style:normal;font-variant:normal;font-weight:normal;font-stretch:normal;font-family:'Helvetica Neue';-inkscape-font-specification:'Helvetica Neue';fill:#000000;stroke-width:1.85491;fill-opacity:1"
       d="m 125.32547,23.591797 v -3.561432 h -4.15501 q -1.12778,0 -2.25557,0.534215 -1.12779,0.474858 -2.0775,1.48393 -0.89036,0.949715 -1.48393,2.433645 -0.59357,1.424573 -0.59357,3.324003 v 10.803011 q 0,1.543287 -0.4155,2.849146 -0.4155,1.305858 -1.12779,2.255573 -0.65293,0.890358 -1.54329,1.424573 -0.89036,0.474858 -1.84007,0.474858 v 4.036289 q 0.94971,0 1.84007,0.474858 0.89036,0.474857 1.54329,1.365215 0.71229,0.890359 1.12779,2.196217 0.4155,1.305858 0.4155,2.908503 v 10.743653 q 0,1.89943 0.59357,3.324003 0.59357,1.48393 1.48393,2.433646 0.94971,1.009072 2.0775,1.48393 1.12779,0.534214 2.25557,0.534214 h 4.15501 v -3.561432 h -2.96786 q -0.89036,0 -1.42458,-0.474857 -0.53421,-0.415501 -0.89035,-1.187144 -0.29679,-0.712287 -0.4155,-1.662002 -0.11872,-0.890358 -0.11872,-1.780716 v -10.80301 q 0,-2.255574 -0.65293,-3.739504 -0.59357,-1.48393 -1.42457,-2.374288 -0.831,-0.949715 -1.72136,-1.365216 -0.831,-0.4155 -1.36521,-0.474857 v -0.178072 q 0.53421,-0.118714 1.36521,-0.593572 0.89036,-0.474858 1.72136,-1.424573 0.831,-0.949715 1.42457,-2.374288 0.65293,-1.48393 0.65293,-3.561432 V 28.696516 q 0,-0.949715 0.11872,-1.840073 0.11871,-0.949715 0.4155,-1.662001 0.35614,-0.712287 0.89035,-1.127787 0.53422,-0.474858 1.42458,-0.474858 z" />
    <path
       id="path1595"
       style="font-style:normal;font-variant:normal;font-weight:normal;font-stretch:normal;font-family:'Helvetica Neue';-inkscape-font-specification:'Helvetica Neue';fill:#808080;stroke-width:1.85491;fill-opacity:1"
       d="m 130.60733,21.039438 v 42.381041 h 5.04536 V 46.088176 q 0,-2.077502 0.53422,-3.798861 0.59357,-1.780716 1.72136,-3.086574 1.12778,-1.305858 2.78978,-2.018145 1.72136,-0.712286 4.03629,-0.712286 2.90851,0 4.57051,1.662001 1.662,1.662002 1.662,4.511148 v 20.77502 h 5.04536 V 43.239031 q 0,-2.493003 -0.53421,-4.511148 -0.47486,-2.077502 -1.72136,-3.561432 -1.2465,-1.48393 -3.26465,-2.31493 -2.01814,-0.831001 -5.04536,-0.831001 -1.36521,0 -2.84914,0.296786 -1.42458,0.296786 -2.78979,0.949715 -1.30586,0.593572 -2.37429,1.602644 -1.06843,0.949716 -1.662,2.374288 h -0.11872 V 21.039438 Z" />
    <path
       id="path1597"
       style="font-style:normal;font-variant:normal;font-weight:normal;font-stretch:normal;font-family:'Helvetica Neue';-inkscape-font-specification:'Helvetica Neue';fill:#808080;stroke-width:1.85491;fill-opacity:1"
       d="m 168.99011,27.212586 v -6.173148 h -5.04536 v 6.173148 z m -5.04536,5.52022 v 30.687673 h 5.04536 V 32.732806 Z" />
    <path
       id="path1599"
       style="font-style:normal;font-variant:normal;font-weight:normal;font-stretch:normal;font-family:'Helvetica Neue';-inkscape-font-specification:'Helvetica Neue';fill:#808080;stroke-width:1.85491;fill-opacity:1"
       d="m 177.04229,32.732806 v 42.381041 h 5.04536 V 59.324832 h 0.11871 q 0.831,1.365216 2.01815,2.314931 1.2465,0.890358 2.61171,1.424573 1.36522,0.534214 2.73044,0.771643 1.42457,0.237429 2.55235,0.237429 3.50208,0 6.1138,-1.246501 2.67107,-1.246501 4.39243,-3.383361 1.78072,-2.196216 2.61172,-5.104719 0.89035,-2.908503 0.89035,-6.173149 0,-3.264646 -0.89035,-6.173149 -0.89036,-2.908502 -2.67108,-5.104719 -1.72136,-2.255573 -4.39243,-3.561432 -2.61172,-1.305858 -6.17315,-1.305858 -3.20529,0 -5.87636,1.187144 -2.67108,1.127787 -3.91758,3.680146 h -0.11871 v -4.155004 z m 23.74288,15.076729 q 0,2.255574 -0.47486,4.392433 -0.47486,2.136859 -1.54329,3.798861 -1.06843,1.662001 -2.84914,2.671074 -1.72136,1.009072 -4.33308,1.009072 -2.61172,0 -4.45179,-0.949715 -1.84007,-1.009072 -3.02722,-2.611717 -1.12778,-1.602644 -1.662,-3.680146 -0.53421,-2.13686 -0.53421,-4.392433 0,-2.136859 0.47485,-4.214361 0.53422,-2.077502 1.66201,-3.680147 1.12778,-1.662001 2.9085,-2.671074 1.78071,-1.009072 4.33307,-1.009072 2.43365,0 4.21437,0.949715 1.84007,0.949715 2.96786,2.55236 1.18714,1.602644 1.72135,3.680146 0.59358,2.018145 0.59358,4.155004 z" />
    <path
       id="path1601"
       style="font-style:normal;font-variant:normal;font-weight:normal;font-stretch:normal;font-family:'Helvetica Neue';-inkscape-font-specification:'Helvetica Neue';fill:#808080;stroke-width:1.85491;fill-opacity:1"
       d="m 212.28563,32.732806 v 42.381041 h 5.04536 V 59.324832 h 0.11871 q 0.831,1.365216 2.01815,2.314931 1.2465,0.890358 2.61171,1.424573 1.36522,0.534214 2.73043,0.771643 1.42458,0.237429 2.55236,0.237429 3.50208,0 6.1138,-1.246501 2.67107,-1.246501 4.39243,-3.383361 1.78071,-2.196216 2.61172,-5.104719 0.89035,-2.908503 0.89035,-6.173149 0,-3.264646 -0.89035,-6.173149 -0.89036,-2.908502 -2.67108,-5.104719 -1.72136,-2.255573 -4.39243,-3.561432 -2.61172,-1.305858 -6.17315,-1.305858 -3.20529,0 -5.87636,1.187144 -2.67108,1.127787 -3.91758,3.680146 h -0.11871 v -4.155004 z m 23.74288,15.076729 q 0,2.255574 -0.47486,4.392433 -0.47486,2.136859 -1.54329,3.798861 -1.06843,1.662001 -2.84914,2.671074 -1.72136,1.009072 -4.33308,1.009072 -2.61172,0 -4.45179,-0.949715 -1.84007,-1.009072 -3.02722,-2.611717 -1.12778,-1.602644 -1.662,-3.680146 -0.53421,-2.13686 -0.53421,-4.392433 0,-2.136859 0.47485,-4.214361 0.53422,-2.077502 1.66201,-3.680147 1.12778,-1.662001 2.9085,-2.671074 1.78071,-1.009072 4.33307,-1.009072 2.43365,0 4.21436,0.949715 1.84008,0.949715 2.96786,2.55236 1.18715,1.602644 1.72136,3.680146 0.59358,2.018145 0.59358,4.155004 z" />
    <path
       id="path1603"
       style="font-style:normal;font-variant:normal;font-weight:normal;font-stretch:normal;font-family:'Helvetica Neue';-inkscape-font-specification:'Helvetica Neue';fill:#808080;stroke-width:1.85491;fill-opacity:1"
       d="m 251.03103,48.106321 q 0,-2.789788 0.71229,-4.926648 0.77164,-2.196216 2.0775,-3.680146 1.30586,-1.48393 3.02722,-2.255574 1.78071,-0.771643 3.7395,-0.771643 1.95879,0 3.68015,0.771643 1.78071,0.771644 3.08657,2.255574 1.30586,1.48393 2.01815,3.680146 0.77164,2.13686 0.77164,4.926648 0,2.789788 -0.77164,4.986005 -0.71229,2.136859 -2.01815,3.620789 -1.30586,1.424573 -3.08657,2.196217 -1.72136,0.771643 -3.68015,0.771643 -1.95879,0 -3.7395,-0.771643 -1.72136,-0.771644 -3.02722,-2.196217 -1.30586,-1.48393 -2.0775,-3.620789 -0.71229,-2.196217 -0.71229,-4.986005 z m -5.34215,0 q 0,3.38336 0.94972,6.291863 0.94971,2.908503 2.84914,5.10472 1.89944,2.136859 4.68922,3.38336 2.78979,1.187144 6.41058,1.187144 3.68015,0 6.41058,-1.187144 2.78979,-1.246501 4.68922,-3.38336 1.89943,-2.196217 2.84914,-5.10472 0.94972,-2.908503 0.94972,-6.291863 0,-3.38336 -0.94972,-6.291863 -0.94971,-2.96786 -2.84914,-5.104719 -1.89943,-2.196217 -4.68922,-3.442718 -2.73043,-1.246501 -6.41058,-1.246501 -3.62079,0 -6.41058,1.246501 -2.78978,1.246501 -4.68922,3.442718 -1.89943,2.136859 -2.84914,5.104719 -0.94972,2.908503 -0.94972,6.291863 z" />
    <path
       id="path1605"
       style="font-style:normal;font-variant:normal;font-weight:normal;font-stretch:normal;font-family:'Helvetica Neue';-inkscape-font-specification:'Helvetica Neue';fill:#000000;stroke-width:1.85491;fill-opacity:1"
       d="m 279.06063,71.552415 v 3.561432 h 4.155 q 1.12779,0 2.25558,-0.534214 1.12778,-0.474858 2.01814,-1.48393 0.94972,-0.949716 1.54329,-2.433646 0.59357,-1.424573 0.59357,-3.324003 V 56.594401 q 0,-1.543287 0.4155,-2.789789 0.4155,-1.305858 1.06843,-2.196216 0.71229,-0.949715 1.60264,-1.424573 0.89036,-0.534215 1.84008,-0.534215 v -4.036289 q -0.94972,0 -1.84008,-0.474858 -0.89035,-0.474858 -1.60264,-1.365216 -0.65293,-0.949715 -1.06843,-2.255573 -0.4155,-1.305859 -0.4155,-2.908503 V 27.806158 q 0,-1.89943 -0.59357,-3.324003 -0.59357,-1.48393 -1.54329,-2.433645 -0.89036,-1.009072 -2.01814,-1.48393 -1.12779,-0.534215 -2.25558,-0.534215 h -4.155 v 3.561432 h 2.96786 q 0.89036,0 1.42457,0.474858 0.53422,0.4155 0.831,1.187144 0.35614,0.712286 0.47486,1.662001 0.11871,0.890358 0.11871,1.899431 v 10.743653 q 0,2.255574 0.59358,3.739504 0.65292,1.48393 1.48393,2.433645 0.831,0.890358 1.662,1.305858 0.89036,0.415501 1.42457,0.474858 v 0.178072 q -0.53421,0.118714 -1.42457,0.593572 -0.831,0.474857 -1.662,1.424572 -0.83101,0.949716 -1.48393,2.433646 -0.59358,1.424573 -0.59358,3.502075 v 10.80301 q 0,0.949715 -0.11871,1.840073 -0.11872,0.949715 -0.47486,1.662002 -0.29678,0.712286 -0.831,1.127787 -0.53421,0.474857 -1.42457,0.474857 z" />
  </g>
</svg>
